# xmcd CD database file
#
# Track frame offsets:
#	182
#	24910
#	67907
#	101127
#	139867
#	182907
#	215157
#
# Disc length: 3241 seconds
#
# Revision: 0
# Processed by: cddbd v1.4PL0 Copyright (c) Steve Scherf et al.
# Submitted via: CDex 1.50beta10
#
DISCID=640ca707
DTITLE=Pierre Dørge - Ballad Round The Left Corner
DYEAR=1988
DGENRE=Jazz
TTITLE0=Ballad Round The Left Corner
TTITLE1=Xongly
TTITLE2=Happy As A Cow
TTITLE3=Profile Indiansky
TTITLE4=Sunsetrise At Pluto
TTITLE5=Another Rainy Summer
TTITLE6=Chasing The Cow
EXTD=YEAR: 1988
EXTT0=
EXTT1=
EXTT2=
EXTT3=
EXTT4=
EXTT5=
EXTT6=
PLAYORDER=
